<svg width="108" height="21" viewBox="0 0 108 21" fill="none" xmlns="http://www.w3.org/2000/svg">
    <path
        d="M14.1178 4.3311L8.68072 16.5518H5.43711L0 4.3311H3.66364L7.07058 12.1505L10.4542 4.3311H14.1178ZM22.7052 4.16722C25.4821 4.16722 28.679 6.25084 28.679 10.4415C28.679 14.796 25.4821 16.786 22.7052 16.786C20.8384 16.786 19.7416 15.7559 19.5783 15.3344V21H15.8913V13.9532V4.37793H19.5783V5.50167C19.7416 5.24415 20.8384 4.16722 22.7052 4.16722ZM22.1685 13.5318C23.7553 13.5318 25.1087 12.4549 25.1087 10.4415C25.1087 8.49833 23.7553 7.42141 22.1685 7.42141C20.6517 7.42141 19.4149 8.47492 19.4149 10.4415C19.4149 12.4783 20.6517 13.5318 22.1685 13.5318ZM36.5897 13.4615C37.2431 13.4615 37.7098 13.3679 38.2231 13.2274V16.2943C37.7098 16.5284 36.8697 16.6923 35.6329 16.6923C33.6028 16.6923 31.8993 16.0134 31.8993 12.2676V7.42141H30.1958V4.37793H31.8993V1.52174H35.5863V4.37793H38.1765V7.42141H35.5863V12.2676C35.5863 12.806 35.7263 13.4615 36.5897 13.4615ZM47.9773 4.19064C48.304 4.19064 48.6307 4.19064 48.934 4.26087V7.79599C48.654 7.72575 48.3273 7.72575 48.094 7.72575C45.8538 7.72575 44.057 9.34114 43.8703 11.5886V16.5518H40.1833V4.37793H43.8703V7.35117C44.4303 5.52508 45.8304 4.19064 47.9773 4.19064ZM56.8447 4.16722C59.5982 4.16722 63.2385 6.25084 63.2385 10.5117C63.2385 14.796 59.5982 16.786 56.8447 16.786C54.0911 16.786 50.4508 14.796 50.4508 10.5117C50.4508 6.25084 54.0911 4.16722 56.8447 4.16722ZM56.8447 7.42141C55.4446 7.42141 54.0211 8.49833 54.0211 10.5117C54.0211 12.4549 55.4446 13.5318 56.8447 13.5318C58.2448 13.5318 59.6916 12.4549 59.6916 10.5117C59.6916 8.49833 58.2448 7.42141 56.8447 7.42141ZM72.6893 4.19064C74.9528 4.19064 77.263 5.71238 77.263 9.57525V16.5518H73.5761V9.83278C73.5761 7.98328 72.946 7.39799 71.7793 7.39799C70.1224 7.39799 69.1657 9.01338 68.9324 9.71572V16.5518H65.2454V4.37793H68.9324V6.48495C69.1657 5.89967 70.4025 4.19064 72.6893 4.19064ZM83.1902 0V3.11371H79.5032V0H83.1902ZM83.1902 4.37793V16.5518H79.5032V4.37793H83.1902ZM91.5442 4.16722C93.7611 4.16722 95.6279 5.10368 96.7713 7.07023L93.9711 8.40468C93.3644 7.88963 92.8743 7.42141 91.5909 7.42141C90.1908 7.42141 88.7673 8.49833 88.7673 10.4883C88.7673 12.4549 90.1908 13.485 91.5909 13.485C92.8743 13.485 93.3644 13.0635 93.9711 12.5485L96.818 13.8829C95.6279 15.8495 93.8077 16.7391 91.5442 16.7391C88.8373 16.7391 85.197 14.796 85.197 10.4883C85.197 6.25084 88.8373 4.16722 91.5442 4.16722ZM104.472 8.21739C104.145 7.37458 103.655 7.09365 103.118 7.09365C102.628 7.09365 102.138 7.37458 102.138 7.84281C102.138 8.28763 102.418 8.54515 102.955 8.73244L104.495 9.2709C106.222 9.90301 107.972 10.5351 107.972 12.9699C107.972 15.4281 105.522 16.8328 103.002 16.8328C100.738 16.8328 98.6148 15.4983 98.1014 13.3679L100.995 12.4549C101.298 13.1338 101.835 13.9064 103.002 13.9064C103.795 13.9064 104.309 13.3913 104.309 12.9231C104.309 12.689 104.122 12.3846 103.539 12.1505L102.115 11.6355C99.6882 10.7458 98.5448 9.50502 98.5448 7.77258C98.5448 5.50167 100.645 4.16722 102.955 4.16722C105.312 4.16722 106.875 5.45485 107.576 7.39799L104.472 8.21739Z"
        fill="url(#paint0_linear_338_12)" />
    <defs>
        <linearGradient id="paint0_linear_338_12" x1="-2.07639" y1="17.5" x2="115.621" y2="2.42772"
            gradientUnits="userSpaceOnUse">
            <stop stopColor="white" />
            <stop offset="1" stopColor="#FFEAEA" />
        </linearGradient>
    </defs>
</svg>